# xmcd
#
# Track frame offsets:
#	150
#	13569
#	29400
#	46788
#	63614
#	77380
#	91951
#	106071
#	121383
#	139163
#	153959
#	169723
#	185530
#
# Disc length: 2719 seconds
#
# Revision: 1
# Processed by: cddbd v1.5.2PL0 Copyright (c) Steve Scherf et al.
# Submitted via: audiograbber 1.83.01
#
DISCID=9a0a9d0d
DTITLE=Thompson Square - Just Feels Good
DYEAR=2013
DGENRE=Country
TTITLE0=Everything I Shouldn't Be Thinking About
TTITLE1=Here We Go Again
TTITLE2=You Don't Get Lucky
TTITLE3=That's So Me and You
TTITLE4=I Can't Outrun You
TTITLE5=Testing the Water
TTITLE6=For the Life of Me
TTITLE7=If I Didn't Have You
TTITLE8=Here's to Being Here
TTITLE9=Just Feels Good
TTITLE10=Maybe It's You
TTITLE11=Run
TTITLE12=Home is You
EXTD=
EXTT0=
EXTT1=
EXTT2=
EXTT3=
EXTT4=
EXTT5=
EXTT6=
EXTT7=
EXTT8=
EXTT9=
EXTT10=
EXTT11=
EXTT12=
PLAYORDER=
